<?xml version="1.0" standalone="no"?><!DOCTYPE svg PUBLIC "-//W3C//DTD SVG 1.1//EN" "http://www.w3.org/Graphics/SVG/1.1/DTD/svg11.dtd"><svg class="icon" width="32px" height="32.00px" viewBox="0 0 1024 1024" version="1.1" xmlns="http://www.w3.org/2000/svg"><path fill="#ffffff" d="M512 1255.489906M781.15051 491.225265 534.207476 491.225265 534.207476 244.896262c0-12.38297-10.131521-22.514491-22.514491-22.514491s-22.514491 10.131521-22.514491 22.514491L489.178493 491.225265 242.84949 491.225265c-12.38297 0-22.821507 10.336198-22.821507 22.719168l0-0.102339c0 12.38297 10.438537 22.412153 22.821507 22.412153L489.178493 536.254247l0 246.943034c0 12.38297 10.131521 22.514491 22.514491 22.514491s22.514491-10.131521 22.514491-22.514491L534.207476 536.254247l246.943034 0c12.38297 0 22.207476-9.926844 22.207476-22.309814l0-0.102339C803.357985 501.459125 793.53348 491.225265 781.15051 491.225265z" /></svg>