<?xml version="1.0" standalone="no"?><!DOCTYPE svg PUBLIC "-//W3C//DTD SVG 1.1//EN" "http://www.w3.org/Graphics/SVG/1.1/DTD/svg11.dtd"><svg class="icon" width="32px" height="32.00px" viewBox="0 0 1024 1024" version="1.1" xmlns="http://www.w3.org/2000/svg"><path fill="#ffffff" d="M512 1255.489906M492.248651 221.767739c0-30.394563-24.561263-54.955827-54.955827-54.955827L246.329003 166.811913c-30.394563 0-54.955827 24.561263-54.955827 54.955827l0 190.963822c0 30.394563 24.561263 54.955827 54.955827 54.955827l190.963822 0c30.394563 0 54.955827-24.561263 54.955827-54.955827L492.248651 221.767739zM447.219668 412.731561c0 5.526284-4.40056 9.926844-9.926844 9.926844L246.329003 422.658405c-5.526284 0-9.926844-4.40056-9.926844-9.926844L236.402159 221.767739c0-5.526284 4.40056-9.926844 9.926844-9.926844l190.963822 0c5.526284 0 9.926844 4.40056 9.926844 9.926844L447.219668 412.731561zM845.31681 221.767739c0-30.394563-24.561263-54.955827-54.955827-54.955827L599.397162 166.811913c-30.394563 0-54.955827 24.561263-54.955827 54.955827l0 190.963822c0 30.394563 24.561263 54.955827 54.955827 54.955827l190.963822 0c30.394563 0 54.955827-24.561263 54.955827-54.955827L845.31681 221.767739zM800.287827 412.731561c0 5.526284-4.40056 9.926844-9.926844 9.926844L599.397162 422.658405c-5.526284 0-9.926844-4.40056-9.926844-9.926844L589.470318 221.767739c0-5.526284 4.40056-9.926844 9.926844-9.926844l190.963822 0c5.526284 0 9.926844 4.40056 9.926844 9.926844L800.287827 412.731561zM492.248651 562.555267c0-30.394563-24.561263-54.955827-54.955827-54.955827L246.329003 507.59944c-30.394563 0-54.955827 24.561263-54.955827 54.955827l0 190.963822c0 30.394563 24.561263 54.955827 54.955827 54.955827l190.963822 0c30.394563 0 54.955827-24.561263 54.955827-54.955827L492.248651 562.555267zM447.219668 753.519089c0 5.526284-4.40056 9.926844-9.926844 9.926844L246.329003 763.445932c-5.526284 0-9.926844-4.40056-9.926844-9.926844L236.402159 562.555267c0-5.526284 4.40056-9.926844 9.926844-9.926844l190.963822 0c5.526284 0 9.926844 4.40056 9.926844 9.926844L447.219668 753.519089zM694.879073 512.71637c-82.996602 0-150.437737 67.441135-150.437737 150.437737s67.441135 150.437737 150.437737 150.437737 150.437737-67.441135 150.437737-150.437737S777.875675 512.71637 694.879073 512.71637zM694.879073 768.562862c-58.128323 0-105.408755-47.280432-105.408755-105.408755s47.280432-105.408755 105.408755-105.408755 105.408755 47.280432 105.408755 105.408755S753.007396 768.562862 694.879073 768.562862z" /></svg>