<?xml version="1.0" standalone="no"?><!DOCTYPE svg PUBLIC "-//W3C//DTD SVG 1.1//EN" "http://www.w3.org/Graphics/SVG/1.1/DTD/svg11.dtd"><svg class="icon" width="32px" height="32.00px" viewBox="0 0 1024 1024" version="1.1" xmlns="http://www.w3.org/2000/svg"><path fill="#ffffff" d="M650.873476 211.840895c0-80.23346-65.087348-145.320808-145.320808-145.320808l0 0c-80.23346 0-145.320808 65.087348-145.320808 145.320808l0 243.56586c0 80.23346 65.087348 145.320808 145.320808 145.320808l0 0c80.23346 0 145.320808-65.087348 145.320808-145.320808L650.873476 211.840895zM605.844493 455.406756c0 55.365181-44.926644 100.291825-100.291825 100.291825l0 0c-55.365181 0-100.291825-44.926644-100.291825-100.291825L405.260843 211.840895c0-55.365181 44.926644-100.291825 100.291825-100.291825l0 0c55.365181 0 100.291825 44.926644 100.291825 100.291825L605.844493 455.406756zM687.203678 622.11633c47.894463-47.894463 74.195483-111.242055 74.195483-178.580851L761.399161 291.665001c0-12.485309-10.029182-22.514491-22.514491-22.514491s-22.514491 10.029182-22.514491 22.514491l0 151.870478c0 114.51689-93.230462 207.747352-207.747352 207.747352s-207.747352-93.230462-207.747352-207.747352L300.875475 291.665001c0-12.485309-10.029182-22.514491-22.514491-22.514491s-22.514491 10.029182-22.514491 22.514491l0 151.870478c0 67.236458 26.403358 130.686388 74.195483 178.580851 42.26584 42.26584 96.607635 67.748151 155.042974 73.172097L485.084949 887.275635 344.881071 887.275635c-12.485309 0-22.514491 10.029182-22.514491 22.514491s10.029182 22.514491 22.514491 22.514491l333.623826 0c12.485309 0 22.514491-10.029182 22.514491-22.514491s-10.029182-22.514491-22.514491-22.514491L530.113932 887.275635 530.113932 695.390766C589.265641 690.376174 644.426144 664.791525 687.203678 622.11633z" /></svg>