<?xml version="1.0" standalone="no"?><!DOCTYPE svg PUBLIC "-//W3C//DTD SVG 1.1//EN" "http://www.w3.org/Graphics/SVG/1.1/DTD/svg11.dtd"><svg class="icon" width="32px" height="32.00px" viewBox="0 0 1024 1024" version="1.1" xmlns="http://www.w3.org/2000/svg"><path fill="#ffffff" d="M800.287827 554.675195l0 182.162702L231.285229 736.837897 231.285229 554.675195l-45.028983 0 0 197.513492c0 15.760144 13.713372 29.678193 29.268839 29.678193l602.569658 0c15.555467 0 27.222067-13.918049 27.222067-29.678193L845.31681 554.675195 800.287827 554.675195zM498.593644 692.11593c4.40056 4.40056 10.131521 6.54967 15.964821 6.54967 5.321607 0 10.643214-1.944433 14.941435-5.730961 1.330402-0.818709 2.456126-1.842095 3.581851-2.967819l144.706776-144.706776c8.801119-8.801119 8.801119-23.026184 0-31.827304-8.801119-8.801119-23.537877-8.801119-32.338997 0L536.254247 622.11633 536.254247 283.477913c0-12.485309-10.029182-22.514491-22.514491-22.514491s-22.514491 10.029182-22.514491 22.514491l0 338.638417L385.10014 515.479512c-8.801119-8.801119-22.821507-8.801119-31.622626 0-8.801119 8.801119-8.698781 23.026184 0.102339 31.827304L498.593644 692.11593z" /></svg>