<?xml version="1.0" standalone="no"?><!DOCTYPE svg PUBLIC "-//W3C//DTD SVG 1.1//EN" "http://www.w3.org/Graphics/SVG/1.1/DTD/svg11.dtd"><svg t="1671974278045" class="icon" viewBox="0 0 1024 1024" version="1.1" xmlns="http://www.w3.org/2000/svg" p-id="17939" xmlns:xlink="http://www.w3.org/1999/xlink" width="32" height="32"><path d="M512 64C262.4 64 64 262.4 64 512s198.4 448 448 448 448-198.4 448-448S761.6 64 512 64zM569.6 409.6c0-12.8 12.8-32 32-32l44.8 0c12.8 0 32 12.8 32 32l0 57.6c0 12.8-12.8 32-32 32L601.6 499.2c-12.8 0-32-12.8-32-32L569.6 409.6zM345.6 409.6c0-12.8 12.8-32 32-32l44.8 0c12.8 0 32 12.8 32 32l0 57.6c0 12.8-12.8 32-32 32L377.6 499.2c-12.8 0-32-12.8-32-32L345.6 409.6zM672 736c-38.4-64-89.6-89.6-160-89.6s-121.6 25.6-160 89.6l-64 0C320 652.8 416 588.8 512 588.8s198.4 76.8 224 147.2L672 736z" fill="#050505" p-id="17940"></path></svg>