<?xml version="1.0" standalone="no"?><!DOCTYPE svg PUBLIC "-//W3C//DTD SVG 1.1//EN" "http://www.w3.org/Graphics/SVG/1.1/DTD/svg11.dtd"><svg class="icon" width="32px" height="32.00px" viewBox="0 0 1024 1024" version="1.1" xmlns="http://www.w3.org/2000/svg"><path fill="#ffffff" d="M760.171097 415.494703 346.927843 415.494703l0-67.441135c0-91.90006 74.809514-166.709574 166.811913-166.709574 92.002399 0 166.811913 74.911853 166.811913 166.914251 0 12.485309 10.029182 22.514491 22.514491 22.514491s22.514491-10.029182 22.514491-22.514491c0-116.870678-95.072556-211.943234-211.840895-211.943234-56.593244 0-109.809314 22.002798-149.823706 62.01719-40.014391 40.014391-62.01719 93.128123-62.01719 149.721367L301.898861 415.494703l-47.485109 0c-27.631421 0-49.736558 22.105137-49.736558 49.634219l0 341.913252c0 27.631421 22.207476 50.452928 49.736558 50.452928l505.655007 0c27.631421 0 50.35059-22.821507 50.35059-50.452928L810.419348 465.128923C810.521687 437.59984 787.802518 415.494703 760.171097 415.494703zM765.492704 807.553868c0 2.763142-2.251449 5.014591-5.014591 5.014591L254.720768 812.568459c-2.763142 0-5.014591-2.251449-5.014591-5.014591L249.706176 465.538277c0-2.763142 2.251449-5.014591 5.014591-5.014591l505.655007 0c2.763142 0 5.014591 2.251449 5.014591 5.014591L765.390366 807.553868zM644.528483 527.862483 463.286828 709.104138c-0.511693 0.511693-1.228063 0.511693-1.637418 0l-73.069758-73.069758c-8.801119-8.801119-23.026184-8.801119-31.827304 0-8.801119 8.801119-8.801119 23.026184 0 31.827304l73.069758 73.069758c9.005797 9.005797 20.877074 13.508695 32.646012 13.508695 11.871277 0 23.640216-4.502898 32.646012-13.508695l181.241655-181.241655c8.801119-8.801119 8.801119-23.026184 0-31.827304C667.554667 519.061363 653.329602 519.061363 644.528483 527.862483z" /></svg>