<?xml version="1.0" standalone="no"?><!DOCTYPE svg PUBLIC "-//W3C//DTD SVG 1.1//EN" "http://www.w3.org/Graphics/SVG/1.1/DTD/svg11.dtd"><svg class="icon" width="32px" height="32.00px" viewBox="0 0 1024 1024" version="1.1" xmlns="http://www.w3.org/2000/svg"><path fill="#ffffff" d="M769.790925 493.886068c-4.707575-56.797921-24.254247-113.80052-55.262842-160.671597-34.488107-52.192684-81.256846-89.648611-135.086948-108.274235-45.643014-15.862483-97.631021-17.295223-150.23306-4.093544-46.257046 11.564261-91.490706 33.669398-130.993404 63.961623-1.228063 0.921047-2.353788 1.944433-3.274835 3.070158l-30.394563-29.064162c-3.888867-3.786528-10.336198-0.921047-10.23386 4.502898l2.046772 91.797721c0.102339 3.377174 2.865481 6.037977 6.242654 5.935639l91.797721-2.046772c5.423946-0.102339 7.982411-6.754347 4.093544-10.438537L327.48351 318.989406c59.151709-44.619628 151.870478-81.154507 237.220867-51.476314 100.496502 34.897462 152.893864 140.715571 160.262243 230.057166 0.921047 11.768939 10.847891 20.672397 22.412153 20.672397 0.614032 0 1.228063 0 1.842095-0.102339C761.501499 517.11693 770.711973 506.269039 769.790925 493.886068zM727.729762 583.330002l-91.797721-2.456126c-5.423946-0.102339-8.289426 6.344993-4.605237 10.23386l29.371177 31.008595c-58.640016 39.707376-151.461123 69.078553-238.653608 33.874076-87.294823-35.204477-146.037178-126.285829-149.414351-231.89926-0.409354-12.38297-10.745553-22.207476-23.230861-21.798121-12.38297 0.409354-22.207476 10.847891-21.798121 23.230861 1.842095 56.490905 18.830302 113.493504 47.792125 160.569258 31.724965 51.578653 76.651609 90.160304 129.765341 111.651409 30.803918 12.38297 64.473316 18.727963 99.370778 18.727963 16.271837 0 32.85069-1.330402 49.531881-4.195882 47.689786-7.982411 94.151509-26.812712 134.268239-54.546472 1.228063-0.921047 2.456126-1.842095 3.479512-2.865481l28.961823 30.496902c3.684189 3.888867 10.336198 1.43274 10.438537-3.991205l2.456126-91.797721C733.665401 586.195483 731.004597 583.432341 727.729762 583.330002z" /></svg>