<?xml version="1.0" standalone="no"?><!DOCTYPE svg PUBLIC "-//W3C//DTD SVG 1.1//EN" "http://www.w3.org/Graphics/SVG/1.1/DTD/svg11.dtd"><svg class="icon" width="32px" height="32.00px" viewBox="0 0 1024 1024" version="1.1" xmlns="http://www.w3.org/2000/svg"><path fill="#ffffff" d="M716.779532 321.343194 626.312213 321.343194l0-56.695583c0-24.868279-20.263042-44.619628-45.131321-44.619628L364.427743 220.027983c-24.868279 0-45.131321 19.751349-45.131321 44.619628L319.296422 321.343194l-89.034579 0c-15.453128 0-27.631421 12.38297-27.631421 27.836098l0 25.994004c0 15.453128 12.178293 28.040776 27.631421 28.040776l33.771737 0 0 433.710973c0 28.859484 23.844893 52.397362 52.602039 52.397362l308.857885 0c28.859484 0 51.885669-23.537877 51.885669-52.397362L677.379172 403.214072l39.298021 0c15.453128 0 28.245453-12.587647 28.245453-28.040776l0-25.994004C745.024985 333.726164 732.23266 321.343194 716.779532 321.343194zM509.646212 403.214072l0 441.079352-77.777334 0L431.868879 403.214072 509.646212 403.214072zM349.998001 264.647611c0-7.982411 6.447332-13.918049 14.429742-13.918049l216.753148 0c7.982411 0 14.429742 6.037977 14.429742 13.918049L595.610634 321.343194 349.998001 321.343194 349.998001 264.647611zM309.062562 836.925045 309.062562 403.214072l77.777334 0 0 441.079352-70.204277 0C312.746752 844.293424 309.062562 840.91625 309.062562 836.925045zM632.452528 836.925045c0 3.888867-2.967819 7.368379-6.856686 7.368379L554.675195 844.293424 554.675195 403.214072l77.777334 0L632.452528 836.925045z" /></svg>