<?xml version="1.0" standalone="no"?><!DOCTYPE svg PUBLIC "-//W3C//DTD SVG 1.1//EN" "http://www.w3.org/Graphics/SVG/1.1/DTD/svg11.dtd"><svg class="icon" width="32px" height="32.00px" viewBox="0 0 1024 1024" version="1.1" xmlns="http://www.w3.org/2000/svg"><path fill="#ffffff" d="M689.352788 647.905657c-33.464721 0-62.631221 18.523286-77.879672 45.847691L373.740556 563.373976c2.967819-8.801119 4.502898-18.21627 4.502898-28.040776 0-6.242654-0.614032-12.280632-1.842095-18.113932L630.405757 377.936438c15.760144 13.918049 36.330202 22.309814 58.947032 22.309814 49.122526 0 89.034579-39.912053 89.034579-89.034579s-39.912053-89.034579-89.034579-89.034579-89.034579 39.912053-89.034579 89.034579c0 10.23386 1.739756 20.058365 4.912253 29.1665L356.240656 476.795523c-16.374175-18.727963-40.321407-30.496902-67.031781-30.496902-49.122526 0-89.034579 39.912053-89.034579 89.034579 0 49.122526 39.912053 89.034579 89.034579 89.034579 23.026184 0 44.005597-8.801119 59.868079-23.128523l251.343594 137.747751c1.125725 48.201479 40.628423 86.987807 89.034579 86.987807 49.122526 0 89.034579-39.912053 89.034579-89.034579S738.475315 647.905657 689.352788 647.905657zM689.352788 267.206076c24.254247 0 44.005597 19.751349 44.005597 44.005597s-19.751349 44.005597-44.005597 44.005597-44.005597-19.751349-44.005597-44.005597S665.098541 267.206076 689.352788 267.206076zM289.208875 579.338797c-24.254247 0-44.005597-19.751349-44.005597-44.005597 0-24.254247 19.751349-44.005597 44.005597-44.005597s44.005597 19.751349 44.005597 44.005597C333.214471 559.587448 313.463122 579.338797 289.208875 579.338797zM689.352788 780.945833c-24.254247 0-44.005597-19.751349-44.005597-44.005597s19.751349-44.005597 44.005597-44.005597 44.005597 19.751349 44.005597 44.005597S713.607036 780.945833 689.352788 780.945833z" /></svg>