<?xml version="1.0" standalone="no"?><!DOCTYPE svg PUBLIC "-//W3C//DTD SVG 1.1//EN" "http://www.w3.org/Graphics/SVG/1.1/DTD/svg11.dtd"><svg class="icon" width="32px" height="32.00px" viewBox="0 0 1024 1024" version="1.1" xmlns="http://www.w3.org/2000/svg"><path fill="#ffffff" d="M653.329602 261.679792c-10.95023-5.935639-24.561263-1.944433-30.59924 8.903458s-1.944433 24.561263 8.903458 30.59924C726.194683 352.965821 784.937038 452.131921 784.937038 559.792125c0 162.513692-132.221467 294.735159-294.735159 294.735159S195.46672 722.305817 195.46672 559.792125c0-110.935039 61.30082-211.329202 159.955227-262.191485 11.052568-5.730961 15.35079-19.239656 9.722167-30.292225-5.730961-11.052568-19.239656-15.35079-30.292225-9.722167-54.648811 28.143114-100.701179 70.613632-133.244853 122.908655-33.464721 53.727763-51.169298 115.744953-51.169298 179.297222 0 45.847691 9.005797 90.364981 26.710374 132.221467 17.090546 40.423746 41.651809 76.753948 72.762742 107.96722 31.213272 31.213272 67.543474 55.672197 107.96722 72.762742C399.836898 890.55047 444.354187 899.556266 490.201879 899.556266c45.847691 0 90.364981-9.005797 132.221467-26.710374 40.423746-17.090546 76.753948-41.651809 107.96722-72.762742 31.213272-31.213272 55.672197-67.543474 72.762742-107.96722C820.960224 650.157106 829.96602 605.639816 829.96602 559.792125 829.96602 435.655407 762.320208 321.445533 653.329602 261.679792zM490.201879 616.078353c12.485309 0 22.514491-10.029182 22.514491-22.514491L512.71637 160.671597c0-12.485309-10.029182-22.514491-22.514491-22.514491s-22.514491 10.029182-22.514491 22.514491l0 432.892265C467.687388 606.04917 477.71657 616.078353 490.201879 616.078353z" /></svg>