<?xml version="1.0" standalone="no"?><!DOCTYPE svg PUBLIC "-//W3C//DTD SVG 1.1//EN" "http://www.w3.org/Graphics/SVG/1.1/DTD/svg11.dtd"><svg class="icon" width="32px" height="32.00px" viewBox="0 0 1024 1024" version="1.1" xmlns="http://www.w3.org/2000/svg"><path fill="#ffffff" d="M909.892465 343.857685c-21.798121-51.476314-52.909055-97.631021-92.514092-137.236058-39.605037-39.605037-85.862083-70.818309-137.236058-92.514092-53.21607-22.514491-109.809314-33.976414-168.142315-33.976414S397.176094 91.593044 343.857685 114.107535c-51.476314 21.798121-97.631021 52.909055-137.236058 92.514092s-70.818309 85.862083-92.514092 137.236058c-22.514491 53.21607-33.976414 109.809314-33.976414 168.142315s11.461923 114.823906 33.976414 168.142315c21.798121 51.476314 52.909055 97.631021 92.514092 137.236058 39.605037 39.605037 85.862083 70.818309 137.236058 92.514092 53.21607 22.514491 109.809314 33.976414 168.142315 33.976414s114.823906-11.461923 168.142315-33.976414c51.476314-21.798121 97.631021-52.909055 137.236058-92.514092 39.605037-39.605037 70.818309-85.862083 92.514092-137.236058 22.514491-53.21607 33.976414-109.809314 33.976414-168.142315S932.509294 397.176094 909.892465 343.857685zM512 898.839896c-213.273636 0-386.839896-173.56626-386.839896-386.839896s173.56626-386.839896 386.839896-386.839896 386.839896 173.56626 386.839896 386.839896S725.273636 898.839896 512 898.839896zM598.680792 445.172896c0-11.257246-9.210474-20.467719-20.467719-20.467719L445.172896 424.705177c-11.257246 0-20.467719 9.210474-20.467719 20.467719l0 133.040176c0 11.257246 9.210474 20.467719 20.467719 20.467719l133.040176 0c11.257246 0 20.467719-9.210474 20.467719-20.467719L598.680792 445.172896z" /></svg>