<?xml version="1.0" standalone="no"?><!DOCTYPE svg PUBLIC "-//W3C//DTD SVG 1.1//EN" "http://www.w3.org/Graphics/SVG/1.1/DTD/svg11.dtd"><svg class="icon" width="32px" height="32.00px" viewBox="0 0 1024 1024" version="1.1" xmlns="http://www.w3.org/2000/svg"><path fill="#ffffff" d="M800.287827 554.675195l0 182.162702L231.285229 736.837897 231.285229 554.675195l-45.028983 0 0 197.513492c0 15.760144 13.713372 29.678193 29.268839 29.678193l602.569658 0c15.555467 0 27.222067-13.918049 27.222067-29.678193L845.31681 554.675195 800.287827 554.675195zM532.672397 267.513092c-4.40056-4.40056-10.131521-6.54967-15.964821-6.54967-5.321607 0-10.643214 1.944433-14.941435 5.730961-1.330402 0.818709-2.456126 1.842095-3.581851 2.967819L353.477513 414.368979c-8.801119 8.801119-8.801119 23.026184 0 31.827304s23.537877 8.801119 32.338997 0l109.195283-108.68359 0 338.638417c0 12.485309 10.029182 22.514491 22.514491 22.514491s22.514491-10.029182 22.514491-22.514491L540.040776 337.512692 646.1659 444.14951c8.801119 8.801119 22.821507 8.801119 31.622626 0 8.801119-8.801119 8.698781-23.026184-0.102339-31.827304L532.672397 267.513092z" /></svg>